<svg id="SvgjsSvg1001" width="288" height="288" xmlns="http://www.w3.org/2000/svg" version="1.1" xmlns:xlink="http://www.w3.org/1999/xlink" xmlns:svgjs="http://svgjs.com/svgjs"><defs id="SvgjsDefs1002"></defs><g id="SvgjsG1008" transform="matrix(1,0,0,1,0,0)"><svg xmlns="http://www.w3.org/2000/svg" viewBox="0 0 932 712" width="288" height="288"><g transform="translate(88.345 -234.078)" fill="#000000" class="color000 svgShape"><path fill="#a9d0d4" fill-rule="evenodd" stroke="#8abebf" d="M347.09 896.45C296.828 861.839 255.099 892.2295 216.89 926.597 266.221 939.999 318.46 946.078 347.09 896.45zM335.01 866.66C332.7797 805.674 283.489 790.333 233.11 780.186 251.801 827.765 278.105 873.309 335.01 866.66zM257.46 868.97C210.302 830.235 166.155 856.991 125.17 888.006 173.192 905.529 224.732 916.001 257.46 868.97zM213.73 840.05C243.116 786.565 208.6867 748.1 170.654 713.53 162.2763 763.958 161.4764 816.55 213.73 840.05zM175.56 838.86C140.87 788.66 91.067 802.25 43.14 820.81 84.496 850.857 131.174 875.092 175.56 838.866L175.56 838.86zM126.56 794.08C171.454 752.743 151.072 705.314 126.03229 660.43 102.02629 705.561 84.51529 755.155 126.56 794.08zM102.71 789.03C78.197 733.143 26.72 737.014-23.86 746.117 11.026 783.481 52.242 816.152 102.71 789.03zM61.808 735C113.59 702.7 102.36 652.32 86.078 603.57 54.118 643.47 27.712 688.95 61.808 735zM43.732 727.44C30.23 667.926-21.05 661.992-72.438 661.365-45.247 704.652-10.953 744.528 43.732 727.44zM28.354 639.98C83.493 613.83 78.104 562.49 67.512 512.2 31.194 548.17-.246 590.33 28.354 639.98zM19.165 657C12.8258 596.303-37.388 584.323-88.345 577.597-66.486 623.807-37.17 667.472 19.165 657zM5.1751 540.49C64.7641 527.32 70.9831 476.07 71.8961 424.68 28.4581 451.63-11.6079 485.7 5.1751 540.49zM-6.4859 585.25C10.7591 526.71-31.1119 496.52-75.6689 470.9-73.0479 521.952-62.5619 573.49-6.4859 585.25zM28.616 425.5C89.567 428.5522 109.113 380.773 123.579 331.456 74.562 345.963 26.914 368.229 28.616 425.5zM-10.627 491.19C26.002 442.378-2.6649 399.447-35.448 359.87-50.847 408.614-59.048 460.56-10.627 491.19zM55.278 338.67C116.2 335.15 130.5 285.55 139.59 234.96 92.411 254.65 47.431 281.91 55.278 338.67zM16.39 391.33C62.167 350.98 42.814 303.12 18.751 257.7-6.225 302.31-24.804 351.51 16.39 391.33z" transform="matrix(-1 0 0 1 755.44 -.882)" class="colorc59b00 svgShape colorStrokeb28b00 svgStroke"></path><path fill="#a9d0d4" fill-rule="evenodd" stroke="#8abebf" d="M347.09 896.45C296.828 861.839 255.099 892.2295 216.89 926.597 266.221 939.999 318.46 946.078 347.09 896.45zM335.01 866.66C332.7797 805.674 283.489 790.333 233.11 780.186 251.801 827.765 278.105 873.309 335.01 866.66zM257.46 868.97C210.302 830.235 166.155 856.991 125.17 888.006 173.192 905.529 224.732 916.001 257.46 868.97zM213.73 840.05C243.116 786.565 208.6867 748.1 170.654 713.53 162.2763 763.958 161.4764 816.55 213.73 840.05zM175.56 838.86C140.87 788.66 91.067 802.25 43.14 820.81 84.496 850.857 131.174 875.092 175.56 838.866L175.56 838.86zM126.56 794.08C171.454 752.743 151.072 705.314 126.03229 660.43 102.02629 705.561 84.51529 755.155 126.56 794.08zM102.71 789.03C78.197 733.143 26.72 737.014-23.86 746.117 11.026 783.481 52.242 816.152 102.71 789.03zM61.808 735C113.59 702.7 102.36 652.32 86.078 603.57 54.118 643.47 27.712 688.95 61.808 735zM43.732 727.44C30.23 667.926-21.05 661.992-72.438 661.365-45.247 704.652-10.953 744.528 43.732 727.44zM28.354 639.98C83.493 613.83 78.104 562.49 67.512 512.2 31.194 548.17-.246 590.33 28.354 639.98zM19.165 657C12.8258 596.303-37.388 584.323-88.345 577.597-66.486 623.807-37.17 667.472 19.165 657zM5.1751 540.49C64.7641 527.32 70.9831 476.07 71.8961 424.68 28.4581 451.63-11.6079 485.7 5.1751 540.49zM-6.4859 585.25C10.7591 526.71-31.1119 496.52-75.6689 470.9-73.0479 521.952-62.5619 573.49-6.4859 585.25zM28.616 425.5C89.567 428.5522 109.113 380.773 123.579 331.456 74.562 345.963 26.914 368.229 28.616 425.5zM-10.627 491.19C26.002 442.378-2.6649 399.447-35.448 359.87-50.847 408.614-59.048 460.56-10.627 491.19zM55.278 338.67C116.2 335.15 130.5 285.55 139.59 234.96 92.411 254.65 47.431 281.91 55.278 338.67zM16.39 391.33C62.167 350.98 42.814 303.12 18.751 257.7-6.225 302.31-24.804 351.51 16.39 391.33z" class="colorc59b00 svgShape colorStrokeb28b00 svgStroke"></path><path fill="#a9d0d4" stroke="#8abebf" stroke-linecap="round" stroke-width=".849" d="M365.68,905.89A13.132,17.173 0 1 1 339.416,905.89A13.132,17.173 0 1 1 365.68,905.89z" transform="matrix(1.3462 0 0 1.0294 -97.05 -48.372)" class="colorc59b00 svgShape colorStrokeb28b00 svgStroke"></path></g></svg></g></svg>